<svg width="174" height="174" viewBox="0 0 174 174" fill="none" xmlns="http://www.w3.org/2000/svg">
<mask id="mask0_32_183" style="mask-type:alpha" maskUnits="userSpaceOnUse" x="0" y="0" width="174" height="174">
<rect x="0.25" y="43.4303" width="137.419" height="137.129" transform="rotate(-18.0122 0.25 43.4303)" fill="#C8D446"/>
</mask>
<g mask="url(#mask0_32_183)">
<path d="M57.6564 108.879L101.218 94.7145L97.6842 83.8471L54.1228 98.0114L57.6564 108.879ZM52.356 92.5777L117.698 71.3313L114.165 60.4639L48.8224 81.7103L52.356 92.5777ZM47.0556 76.2766L112.398 55.0302L108.864 44.1628L43.522 65.4092L47.0556 76.2766ZM50.01 159.43L18.2077 61.624C17.2359 58.6354 17.471 55.7291 18.9129 52.9051C20.3524 50.0858 22.5696 48.1893 25.5644 47.2155L112.687 18.887C115.682 17.9132 118.593 18.1425 121.418 19.5748C124.242 21.012 126.14 23.2248 127.111 26.2133L148.313 91.4176C149.285 94.4062 149.051 97.3119 147.613 100.135C146.17 102.955 143.951 104.852 140.956 105.826L64.7235 130.614L50.01 159.43ZM52.3756 129.672L56.6977 121.207L137.422 94.9587L116.221 29.7544L29.098 58.0829L52.3756 129.672Z" fill="#D4E420"/>
</g>
</svg>
