<svg width="226" height="223" viewBox="0 0 226 223" fill="none" xmlns="http://www.w3.org/2000/svg">
<mask id="mask0_32_189" style="mask-type:alpha" maskUnits="userSpaceOnUse" x="0" y="0" width="226" height="223">
<rect x="80.0908" y="0.5625" width="168.357" height="158.927" transform="rotate(30.053 80.0908 0.5625)" fill="#D9D9D9"/>
</mask>
<g mask="url(#mask0_32_189)">
<path d="M70.0936 101.885L142.956 144.042L149.588 132.578L76.7262 90.4216L70.0936 101.885ZM80.0425 84.6899L152.904 126.847L159.537 115.383L86.6751 73.2264L80.0425 84.6899ZM89.9914 67.4947L162.853 109.651L169.486 98.188L96.6239 56.0312L89.9914 67.4947ZM140.712 203.948L129.69 166.969L44.6848 117.786C41.3453 115.854 39.1364 113.079 38.0581 109.461C36.9779 105.837 37.3498 102.449 39.1738 99.2963L78.9692 30.5155C80.7932 27.3631 83.5452 25.352 87.2254 24.4823C90.8993 23.614 94.406 24.146 97.7455 26.0782L194.895 82.2872C198.234 84.2194 200.445 86.9956 201.527 90.6157C202.604 94.2373 202.23 97.6243 200.406 100.777L140.712 203.948ZM91.1129 37.5417L51.3174 106.322L141.332 158.404L144.57 169.266L188.262 93.7507L91.1129 37.5417Z" fill="#3910B5"/>
</g>
</svg>
