<svg width="25" height="35" viewBox="0 0 25 35" fill="none" xmlns="http://www.w3.org/2000/svg">
<path d="M12.0316 0C5.4191 0 0 5.40292 0 11.9972C0 14.5523 0.8161 16.927 2.19716 18.8787L10.5632 33.3416C11.7348 34.8723 12.5137 34.5815 13.4879 33.2607L22.7157 17.5575C22.9018 17.2202 23.0482 16.8611 23.1755 16.4943C23.7611 15.0673 24.0622 13.5397 24.062 11.9972C24.0624 5.40292 18.6449 0 12.0316 0ZM12.0316 5.6213C15.5929 5.6213 18.4245 8.44652 18.4245 11.9972C18.4245 15.548 15.5929 18.372 12.0316 18.372C8.47078 18.372 5.63789 15.5484 5.63789 11.9972C5.63789 8.44652 8.47078 5.62171 12.0316 5.62171V5.6213Z" fill="#3F48CC"/>
</svg>
