<svg width="55" height="53" viewBox="0 0 55 53" fill="none" xmlns="http://www.w3.org/2000/svg">
<path d="M27.5 1.0625C12.6569 1.0625 0.625 12.5348 0.625 26.6875C0.625 40.8402 12.6569 52.3125 27.5 52.3125C42.3431 52.3125 54.375 40.8402 54.375 26.6875C54.375 12.5348 42.3431 1.0625 27.5 1.0625Z" fill="#3F48CC" stroke="white" stroke-width="0.9375" stroke-linecap="round" stroke-linejoin="round"/>
<path d="M6.72827 42.9491C6.72827 42.9491 12.7187 35.6562 27.5 35.6562C42.2812 35.6562 48.2743 42.9491 48.2743 42.9491M27.5 26.6875C29.6383 26.6875 31.689 25.8776 33.201 24.4359C34.713 22.9942 35.5625 21.0389 35.5625 19C35.5625 16.9611 34.713 15.0058 33.201 13.5641C31.689 12.1224 29.6383 11.3125 27.5 11.3125C25.3617 11.3125 23.3109 12.1224 21.7989 13.5641C20.2869 15.0058 19.4375 16.9611 19.4375 19C19.4375 21.0389 20.2869 22.9942 21.7989 24.4359C23.3109 25.8776 25.3617 26.6875 27.5 26.6875Z" fill="white"/>
<path d="M6.72827 42.9491C6.72827 42.9491 12.7187 35.6562 27.5 35.6562C42.2812 35.6562 48.2743 42.9491 48.2743 42.9491M27.5 26.6875C29.6383 26.6875 31.689 25.8776 33.201 24.4359C34.713 22.9942 35.5625 21.0389 35.5625 19C35.5625 16.9611 34.713 15.0058 33.201 13.5641C31.689 12.1224 29.6383 11.3125 27.5 11.3125C25.3617 11.3125 23.3109 12.1224 21.7989 13.5641C20.2869 15.0058 19.4375 16.9611 19.4375 19C19.4375 21.0389 20.2869 22.9942 21.7989 24.4359C23.3109 25.8776 25.3617 26.6875 27.5 26.6875Z" stroke="white" stroke-width="0.9375" stroke-linecap="round" stroke-linejoin="round"/>
</svg>
