<svg width="56" height="54" viewBox="0 0 56 54" fill="none" xmlns="http://www.w3.org/2000/svg">
<path d="M28.1083 0.914022C12.9816 0.914022 0.719757 12.6056 0.719757 27.0287C0.719757 41.4518 12.9816 53.1433 28.1083 53.1433C43.235 53.1433 55.4968 41.4518 55.4968 27.0287C55.4968 12.6056 43.235 0.914022 28.1083 0.914022Z" fill="#3F48CC" stroke="white" stroke-width="0.955414" stroke-linecap="round" stroke-linejoin="round"/>
<path d="M6.93967 43.6011C6.93967 43.6011 13.0446 36.1688 28.1083 36.1688C43.172 36.1688 49.2796 43.6011 49.2796 43.6011M28.1083 27.0287C30.2874 27.0287 32.3774 26.2033 33.9183 24.7341C35.4592 23.2648 36.3248 21.2721 36.3248 19.1943C36.3248 17.1165 35.4592 15.1238 33.9183 13.6546C32.3774 12.1853 30.2874 11.3599 28.1083 11.3599C25.9291 11.3599 23.8392 12.1853 22.2983 13.6546C20.7574 15.1238 19.8917 17.1165 19.8917 19.1943C19.8917 21.2721 20.7574 23.2648 22.2983 24.7341C23.8392 26.2033 25.9291 27.0287 28.1083 27.0287Z" fill="white"/>
<path d="M6.93967 43.6011C6.93967 43.6011 13.0446 36.1688 28.1083 36.1688C43.172 36.1688 49.2796 43.6011 49.2796 43.6011M28.1083 27.0287C30.2874 27.0287 32.3774 26.2033 33.9183 24.7341C35.4592 23.2648 36.3248 21.2721 36.3248 19.1943C36.3248 17.1165 35.4592 15.1238 33.9183 13.6546C32.3774 12.1853 30.2874 11.3599 28.1083 11.3599C25.9291 11.3599 23.8392 12.1853 22.2983 13.6546C20.7574 15.1238 19.8917 17.1165 19.8917 19.1943C19.8917 21.2721 20.7574 23.2648 22.2983 24.7341C23.8392 26.2033 25.9291 27.0287 28.1083 27.0287Z" stroke="white" stroke-width="0.955414" stroke-linecap="round" stroke-linejoin="round"/>
</svg>
