<svg width="55" height="53" viewBox="0 0 55 53" fill="none" xmlns="http://www.w3.org/2000/svg">
<path d="M27.5 1.24994C12.6569 1.24994 0.625 12.7223 0.625 26.8749C0.625 41.0276 12.6569 52.4999 27.5 52.4999C42.3431 52.4999 54.375 41.0276 54.375 26.8749C54.375 12.7223 42.3431 1.24994 27.5 1.24994Z" fill="#3F48CC" stroke="white" stroke-width="0.9375" stroke-linecap="round" stroke-linejoin="round"/>
<path d="M6.72827 43.1365C6.72827 43.1365 12.7187 35.8436 27.5 35.8436C42.2812 35.8436 48.2743 43.1365 48.2743 43.1365M27.5 26.8749C29.6383 26.8749 31.689 26.0649 33.201 24.6233C34.713 23.1816 35.5625 21.2262 35.5625 19.1874C35.5625 17.1485 34.713 15.1932 33.201 13.7515C31.689 12.3098 29.6383 11.4999 27.5 11.4999C25.3617 11.4999 23.3109 12.3098 21.7989 13.7515C20.2869 15.1932 19.4375 17.1485 19.4375 19.1874C19.4375 21.2262 20.2869 23.1816 21.7989 24.6233C23.3109 26.0649 25.3617 26.8749 27.5 26.8749Z" fill="white"/>
<path d="M6.72827 43.1365C6.72827 43.1365 12.7187 35.8436 27.5 35.8436C42.2812 35.8436 48.2743 43.1365 48.2743 43.1365M27.5 26.8749C29.6383 26.8749 31.689 26.0649 33.201 24.6233C34.713 23.1816 35.5625 21.2262 35.5625 19.1874C35.5625 17.1485 34.713 15.1932 33.201 13.7515C31.689 12.3098 29.6383 11.4999 27.5 11.4999C25.3617 11.4999 23.3109 12.3098 21.7989 13.7515C20.2869 15.1932 19.4375 17.1485 19.4375 19.1874C19.4375 21.2262 20.2869 23.1816 21.7989 24.6233C23.3109 26.0649 25.3617 26.8749 27.5 26.8749Z" stroke="white" stroke-width="0.9375" stroke-linecap="round" stroke-linejoin="round"/>
</svg>
