<svg width="55" height="53" viewBox="0 0 55 53" fill="none" xmlns="http://www.w3.org/2000/svg">
<path d="M27.5 1.25C12.6569 1.25 0.625 12.7223 0.625 26.875C0.625 41.0277 12.6569 52.5 27.5 52.5C42.3431 52.5 54.375 41.0277 54.375 26.875C54.375 12.7223 42.3431 1.25 27.5 1.25Z" fill="#3F48CC" stroke="white" stroke-width="0.9375" stroke-linecap="round" stroke-linejoin="round"/>
<path d="M6.72827 43.1366C6.72827 43.1366 12.7187 35.8438 27.5 35.8438C42.2812 35.8438 48.2743 43.1366 48.2743 43.1366M27.5 26.875C29.6383 26.875 31.689 26.0651 33.201 24.6234C34.713 23.1817 35.5625 21.2264 35.5625 19.1875C35.5625 17.1486 34.713 15.1933 33.201 13.7516C31.689 12.3099 29.6383 11.5 27.5 11.5C25.3617 11.5 23.3109 12.3099 21.7989 13.7516C20.2869 15.1933 19.4375 17.1486 19.4375 19.1875C19.4375 21.2264 20.2869 23.1817 21.7989 24.6234C23.3109 26.0651 25.3617 26.875 27.5 26.875Z" fill="white"/>
<path d="M6.72827 43.1366C6.72827 43.1366 12.7187 35.8438 27.5 35.8438C42.2812 35.8438 48.2743 43.1366 48.2743 43.1366M27.5 26.875C29.6383 26.875 31.689 26.0651 33.201 24.6234C34.713 23.1817 35.5625 21.2264 35.5625 19.1875C35.5625 17.1486 34.713 15.1933 33.201 13.7516C31.689 12.3099 29.6383 11.5 27.5 11.5C25.3617 11.5 23.3109 12.3099 21.7989 13.7516C20.2869 15.1933 19.4375 17.1486 19.4375 19.1875C19.4375 21.2264 20.2869 23.1817 21.7989 24.6234C23.3109 26.0651 25.3617 26.875 27.5 26.875Z" stroke="white" stroke-width="0.9375" stroke-linecap="round" stroke-linejoin="round"/>
</svg>
