<svg width="114" height="114" viewBox="0 0 114 114" fill="none" xmlns="http://www.w3.org/2000/svg">
<path fill-rule="evenodd" clip-rule="evenodd" d="M57 99.0625C80.2992 99.0625 99.1875 80.1742 99.1875 56.875C99.1875 33.5758 80.2992 14.6875 57 14.6875C33.7008 14.6875 14.8125 33.5758 14.8125 56.875C14.8125 80.1742 33.7008 99.0625 57 99.0625ZM57 103.75C82.8891 103.75 103.875 82.7641 103.875 56.875C103.875 30.9859 82.8891 10 57 10C31.1109 10 10.125 30.9859 10.125 56.875C10.125 82.7641 31.1109 103.75 57 103.75Z" fill="black"/>
<path d="M28.875 84.1328C28.875 81.7117 30.6844 79.6656 33.0938 79.3984C51.1758 77.3968 62.9062 77.5773 80.9484 79.4429C81.8494 79.5375 82.7033 79.8925 83.4059 80.4644C84.1084 81.0363 84.6292 81.8005 84.9046 82.6635C85.1801 83.5266 85.1982 84.4511 84.9568 85.3243C84.7154 86.1974 84.2249 86.9814 83.5453 87.5804C62.2523 106.141 50.0836 105.885 30.375 87.5992C29.4141 86.7085 28.875 85.4406 28.875 84.1328Z" fill="black"/>
<path fill-rule="evenodd" clip-rule="evenodd" d="M80.707 81.7727C62.8078 79.9211 51.2461 79.7477 33.3492 81.7281C32.7601 81.7968 32.217 82.0803 31.8239 82.5244C31.4308 82.9686 31.2154 83.5421 31.2188 84.1352C31.2188 84.8055 31.4977 85.4406 31.9688 85.8813C41.7375 94.9422 49.1391 99.0367 56.3742 99.0625C63.6352 99.0883 71.4352 95.0266 82.0055 85.8156C82.3413 85.5167 82.583 85.1267 82.7013 84.693C82.8196 84.2593 82.8094 83.8006 82.6719 83.3726C82.5343 82.9446 82.2754 82.5657 81.9266 82.2821C81.5778 81.9985 81.1541 81.82 80.707 81.7727ZM32.8359 77.0688C51.1078 75.0461 63.0094 75.2289 81.1922 77.111C82.5476 77.2524 83.8323 77.786 84.8891 78.6464C85.9459 79.5068 86.729 80.6567 87.1423 81.9552C87.5557 83.2538 87.5815 84.6447 87.2165 85.9576C86.8516 87.2706 86.1117 88.4487 85.0875 89.3477C74.3649 98.6946 65.4352 103.785 56.3602 103.75C47.2594 103.717 38.7235 98.5399 28.7836 89.3172C28.0719 88.6543 27.5046 87.8518 27.1171 86.9598C26.7295 86.0678 26.5301 85.1054 26.5313 84.1328C26.5278 82.3854 27.1692 80.6981 28.3326 79.3942C29.4959 78.0903 31.0994 77.2638 32.8359 77.0688Z" fill="black"/>
<path d="M75.75 47.5C75.75 52.4728 73.7746 57.2419 70.2583 60.7583C66.7419 64.2746 61.9728 66.25 57 66.25C52.0272 66.25 47.2581 64.2746 43.7417 60.7583C40.2254 57.2419 38.25 52.4728 38.25 47.5C38.25 42.5272 40.2254 37.7581 43.7417 34.2417C47.2581 30.7254 52.0272 28.75 57 28.75C61.9728 28.75 66.7419 30.7254 70.2583 34.2417C73.7746 37.7581 75.75 42.5272 75.75 47.5Z" fill="black"/>
<path fill-rule="evenodd" clip-rule="evenodd" d="M57 61.5625C60.7296 61.5625 64.3065 60.0809 66.9437 57.4437C69.5809 54.8065 71.0625 51.2296 71.0625 47.5C71.0625 43.7704 69.5809 40.1935 66.9437 37.5563C64.3065 34.9191 60.7296 33.4375 57 33.4375C53.2704 33.4375 49.6935 34.9191 47.0563 37.5563C44.4191 40.1935 42.9375 43.7704 42.9375 47.5C42.9375 51.2296 44.4191 54.8065 47.0563 57.4437C49.6935 60.0809 53.2704 61.5625 57 61.5625ZM57 66.25C61.9728 66.25 66.7419 64.2746 70.2583 60.7583C73.7746 57.2419 75.75 52.4728 75.75 47.5C75.75 42.5272 73.7746 37.7581 70.2583 34.2417C66.7419 30.7254 61.9728 28.75 57 28.75C52.0272 28.75 47.2581 30.7254 43.7417 34.2417C40.2254 37.7581 38.25 42.5272 38.25 47.5C38.25 52.4728 40.2254 57.2419 43.7417 60.7583C47.2581 64.2746 52.0272 66.25 57 66.25Z" fill="black"/>
</svg>
