<svg width="25" height="26" viewBox="0 0 25 26" fill="none" xmlns="http://www.w3.org/2000/svg">
<path d="M20.1458 22.375L13.9115 15.8125C13.4167 16.2292 12.8477 16.559 12.2044 16.8021C11.5612 17.0451 10.8767 17.1667 10.151 17.1667C8.3533 17.1667 6.83198 16.5115 5.58708 15.201C4.34153 13.8899 3.71875 12.2882 3.71875 10.3958C3.71875 8.50347 4.34153 6.90174 5.58708 5.59063C6.83198 4.28021 8.3533 3.625 10.151 3.625C11.9488 3.625 13.4704 4.28021 14.716 5.59063C15.9609 6.90174 16.5833 8.50347 16.5833 10.3958C16.5833 11.1597 16.4679 11.8802 16.237 12.5573C16.0061 13.2344 15.6927 13.8333 15.2969 14.3542L21.5312 20.9167L20.1458 22.375ZM10.151 15.0833C11.388 15.0833 12.4396 14.6278 13.3058 13.7167C14.1714 12.8049 14.6042 11.6979 14.6042 10.3958C14.6042 9.09375 14.1714 7.98681 13.3058 7.075C12.4396 6.16389 11.388 5.70833 10.151 5.70833C8.91406 5.70833 7.86246 6.16389 6.99625 7.075C6.13069 7.98681 5.69792 9.09375 5.69792 10.3958C5.69792 11.6979 6.13069 12.8049 6.99625 13.7167C7.86246 14.6278 8.91406 15.0833 10.151 15.0833Z" fill="#B1B1B1"/>
</svg>
