<svg width="35" height="35" viewBox="0 0 35 35" fill="none" xmlns="http://www.w3.org/2000/svg">
<path d="M6.91319 14.8767C9.66319 20.2812 14.0938 24.6927 19.4983 27.4618L23.6997 23.2604C24.2153 22.7448 24.9792 22.5729 25.6476 22.8021C27.7865 23.5087 30.0972 23.8906 32.4653 23.8906C33.5156 23.8906 34.375 24.75 34.375 25.8003V32.4653C34.375 33.5156 33.5156 34.375 32.4653 34.375C14.533 34.375 0 19.842 0 1.90972C0 0.859375 0.859375 0 1.90972 0H8.59375C9.6441 0 10.5035 0.859375 10.5035 1.90972C10.5035 4.29687 10.8854 6.58854 11.592 8.72743C11.8021 9.39583 11.6493 10.1406 11.1146 10.6753L6.91319 14.8767Z" fill="#3F48CC"/>
</svg>
