<svg width="36" height="35" viewBox="0 0 36 35" fill="none" xmlns="http://www.w3.org/2000/svg">
<path d="M7.78819 15.1267C10.5382 20.5312 14.9688 24.9427 20.3733 27.7118L24.5747 23.5104C25.0903 22.9948 25.8542 22.8229 26.5226 23.0521C28.6615 23.7587 30.9722 24.1406 33.3403 24.1406C34.3906 24.1406 35.25 25 35.25 26.0503V32.7153C35.25 33.7656 34.3906 34.625 33.3403 34.625C15.408 34.625 0.875 20.092 0.875 2.15972C0.875 1.10937 1.73437 0.25 2.78472 0.25H9.46875C10.5191 0.25 11.3785 1.10937 11.3785 2.15972C11.3785 4.54687 11.7604 6.83854 12.467 8.97743C12.6771 9.64583 12.5243 10.3906 11.9896 10.9253L7.78819 15.1267Z" fill="#3F48CC"/>
</svg>
