<svg width="36" height="35" viewBox="0 0 36 35" fill="none" xmlns="http://www.w3.org/2000/svg">
<path d="M18.0625 12.2812C16.695 12.2812 15.3835 12.8245 14.4165 13.7915C13.4495 14.7585 12.9062 16.07 12.9062 17.4375C12.9062 18.805 13.4495 20.1165 14.4165 21.0835C15.3835 22.0505 16.695 22.5937 18.0625 22.5938C19.43 22.5938 20.7415 22.0505 21.7085 21.0835C22.6755 20.1165 23.2188 18.805 23.2188 17.4375C23.2188 16.07 22.6755 14.7585 21.7085 13.7915C20.7415 12.8245 19.43 12.2812 18.0625 12.2812ZM18.0625 8.84375C20.3417 8.84375 22.5276 9.74916 24.1392 11.3608C25.7508 12.9724 26.6563 15.1583 26.6562 17.4375C26.6563 19.7167 25.7508 21.9026 24.1392 23.5142C22.5276 25.1258 20.3417 26.0313 18.0625 26.0312C15.7833 26.0313 13.5974 25.1258 11.9858 23.5142C10.3742 21.9026 9.46875 19.7167 9.46875 17.4375C9.46875 15.1583 10.3742 12.9724 11.9858 11.3608C13.5974 9.74916 15.7833 8.84375 18.0625 8.84375ZM29.2344 8.41406C29.2344 8.98386 29.008 9.53033 28.6051 9.93324C28.2022 10.3361 27.6557 10.5625 27.0859 10.5625C26.5161 10.5625 25.9697 10.3361 25.5668 9.93324C25.1639 9.53033 24.9375 8.98386 24.9375 8.41406C24.9375 7.84426 25.1639 7.2978 25.5668 6.89489C25.9697 6.49198 26.5161 6.26562 27.0859 6.26562C27.6557 6.26562 28.2022 6.49198 28.6051 6.89489C29.008 7.2978 29.2344 7.84426 29.2344 8.41406ZM18.0625 3.6875C13.8103 3.6875 13.1159 3.69953 11.1377 3.78719C9.79016 3.85078 8.88609 4.03125 8.04734 4.35781C7.34543 4.61552 6.71087 5.02857 6.19109 5.56609C5.65314 6.08584 5.23951 6.72038 4.98109 7.42234C4.65453 8.26453 4.47406 9.16688 4.41219 10.5127C4.32281 12.4102 4.3125 13.0736 4.3125 17.4375C4.3125 21.6897 4.32453 22.3841 4.41219 24.3623C4.47578 25.7081 4.65625 26.6139 4.98109 27.4509C5.27328 28.1986 5.61703 28.7366 6.18766 29.3072C6.76688 29.8847 7.30484 30.2302 8.04391 30.5155C8.89297 30.8437 9.79703 31.0259 11.1377 31.0878C13.0352 31.1772 13.6986 31.1875 18.0625 31.1875C22.3147 31.1875 23.0091 31.1755 24.9873 31.0878C26.3314 31.0242 27.2372 30.8438 28.0759 30.5189C28.7768 30.2599 29.411 29.8477 29.9322 29.3123C30.5114 28.7331 30.8569 28.1952 31.1422 27.4561C31.4688 26.6088 31.6509 25.703 31.7128 24.3623C31.8022 22.4648 31.8125 21.8014 31.8125 17.4375C31.8125 13.1853 31.8005 12.4909 31.7128 10.5127C31.6492 9.16859 31.4688 8.26109 31.1422 7.42234C30.8832 6.7211 30.4703 6.08681 29.9339 5.56609C29.4144 5.02786 28.7798 4.61419 28.0777 4.35609C27.2355 4.02953 26.3314 3.84906 24.9873 3.78719C23.0898 3.69781 22.4264 3.6875 18.0625 3.6875ZM18.0625 0.25C22.7323 0.25 23.315 0.267187 25.1472 0.353125C26.9777 0.439062 28.2237 0.726094 29.3203 1.15234C30.4547 1.58891 31.4103 2.18016 32.3659 3.13406C33.2399 3.99326 33.9162 5.03257 34.3477 6.17969C34.7722 7.27453 35.0609 8.52234 35.1469 10.3528C35.2277 12.185 35.25 12.7677 35.25 17.4375C35.25 22.1073 35.2328 22.69 35.1469 24.5222C35.0609 26.3527 34.7722 27.5987 34.3477 28.6953C33.9174 29.8431 33.241 30.8826 32.3659 31.7409C31.5065 32.6146 30.4672 33.2908 29.3203 33.7227C28.2255 34.1472 26.9777 34.4359 25.1472 34.5219C23.315 34.6027 22.7323 34.625 18.0625 34.625C13.3927 34.625 12.81 34.6078 10.9778 34.5219C9.14734 34.4359 7.90125 34.1472 6.80469 33.7227C5.65712 33.2921 4.61762 32.6157 3.75906 31.7409C2.88492 30.8819 2.20863 29.8425 1.77734 28.6953C1.35109 27.6005 1.06406 26.3527 0.978125 24.5222C0.897344 22.69 0.875 22.1073 0.875 17.4375C0.875 12.7677 0.892187 12.185 0.978125 10.3528C1.06406 8.52062 1.35109 7.27625 1.77734 6.17969C2.20744 5.03187 2.88388 3.99227 3.75906 3.13406C4.61787 2.25962 5.6573 1.58328 6.80469 1.15234C7.90125 0.726094 9.14562 0.439062 10.9778 0.353125C12.81 0.272344 13.3927 0.25 18.0625 0.25Z" fill="white"/>
</svg>
