<svg width="35" height="36" viewBox="0 0 35 36" fill="none" xmlns="http://www.w3.org/2000/svg">
<path d="M17.1875 12.2611C15.82 12.2611 14.5085 12.8148 13.5415 13.8002C12.5745 14.7857 12.0312 16.1223 12.0312 17.5159C12.0312 18.9096 12.5745 20.2462 13.5415 21.2316C14.5085 22.2171 15.82 22.7707 17.1875 22.7707C18.555 22.7707 19.8665 22.2171 20.8335 21.2316C21.8005 20.2462 22.3438 18.9096 22.3438 17.5159C22.3438 16.1223 21.8005 14.7857 20.8335 13.8002C19.8665 12.8148 18.555 12.2611 17.1875 12.2611ZM17.1875 8.75796C19.4667 8.75796 21.6526 9.68067 23.2642 11.3231C24.8758 12.9655 25.7813 15.1932 25.7812 17.5159C25.7813 19.8387 24.8758 22.0663 23.2642 23.7087C21.6526 25.3512 19.4667 26.2739 17.1875 26.2739C14.9083 26.2739 12.7224 25.3512 11.1108 23.7087C9.49916 22.0663 8.59375 19.8387 8.59375 17.5159C8.59375 15.1932 9.49916 12.9655 11.1108 11.3231C12.7224 9.68067 14.9083 8.75796 17.1875 8.75796ZM28.3594 8.32006C28.3594 8.90075 28.133 9.45766 27.7301 9.86827C27.3272 10.2789 26.7807 10.5096 26.2109 10.5096C25.6411 10.5096 25.0947 10.2789 24.6918 9.86827C24.2889 9.45766 24.0625 8.90075 24.0625 8.32006C24.0625 7.73937 24.2889 7.18247 24.6918 6.77186C25.0947 6.36125 25.6411 6.13057 26.2109 6.13057C26.7807 6.13057 27.3272 6.36125 27.7301 6.77186C28.133 7.18247 28.3594 7.73937 28.3594 8.32006ZM17.1875 3.50318C12.9353 3.50318 12.2409 3.51545 10.2627 3.60478C8.91516 3.66959 8.01109 3.8535 7.17234 4.18631C6.47043 4.44894 5.83587 4.86988 5.31609 5.41768C4.77814 5.94736 4.36451 6.59402 4.10609 7.30939C3.77953 8.16768 3.59906 9.08726 3.53719 10.4588C3.44781 12.3925 3.4375 13.0686 3.4375 17.5159C3.4375 21.8494 3.44953 22.557 3.53719 24.5731C3.60078 25.9446 3.78125 26.8677 4.10609 27.7207C4.39828 28.4826 4.74203 29.0309 5.31266 29.6124C5.89188 30.201 6.42984 30.553 7.16891 30.8438C8.01797 31.1783 8.92203 31.364 10.2627 31.4271C12.1602 31.5182 12.8236 31.5287 17.1875 31.5287C21.4397 31.5287 22.1341 31.5164 24.1123 31.4271C25.4564 31.3623 26.3622 31.1783 27.2009 30.8473C27.9018 30.5833 28.536 30.1633 29.0572 29.6177C29.6364 29.0274 29.9819 28.4791 30.2672 27.726C30.5938 26.8624 30.7759 25.9393 30.8378 24.5731C30.9272 22.6393 30.9375 21.9632 30.9375 17.5159C30.9375 13.1825 30.9255 12.4748 30.8378 10.4588C30.7742 9.08901 30.5938 8.16417 30.2672 7.30939C30.0082 6.59475 29.5953 5.94834 29.0589 5.41768C28.5394 4.86916 27.9048 4.44759 27.2027 4.18455C26.3605 3.85175 25.4564 3.66783 24.1123 3.60478C22.2148 3.51369 21.5514 3.50318 17.1875 3.50318ZM17.1875 0C21.8573 0 22.44 0.0175158 24.2722 0.105095C26.1027 0.192675 27.3487 0.485191 28.4453 0.919586C29.5797 1.36449 30.5353 1.96704 31.4909 2.93917C32.3649 3.81479 33.0412 4.87396 33.4727 6.04299C33.8972 7.15876 34.1859 8.43041 34.2719 10.2959C34.3527 12.1631 34.375 12.7568 34.375 17.5159C34.375 22.275 34.3578 22.8688 34.2719 24.736C34.1859 26.6014 33.8972 27.8713 33.4727 28.9889C33.0424 30.1585 32.366 31.218 31.4909 32.0927C30.6315 32.983 29.5922 33.6722 28.4453 34.1123C27.3505 34.5449 26.1027 34.8392 24.2722 34.9268C22.44 35.0091 21.8573 35.0318 17.1875 35.0318C12.5177 35.0318 11.935 35.0143 10.1028 34.9268C8.27234 34.8392 7.02625 34.5449 5.92969 34.1123C4.78212 33.6734 3.74262 32.9841 2.88406 32.0927C2.00992 31.2172 1.33363 30.158 0.902344 28.9889C0.476094 27.8731 0.189062 26.6014 0.103125 24.736C0.0223437 22.8688 0 22.275 0 17.5159C0 12.7568 0.0171874 12.1631 0.103125 10.2959C0.189062 8.42866 0.476094 7.16051 0.902344 6.04299C1.33244 4.87324 2.00888 3.81378 2.88406 2.93917C3.74287 2.04802 4.7823 1.35876 5.92969 0.919586C7.02625 0.485191 8.27062 0.192675 10.1028 0.105095C11.935 0.0227706 12.5177 0 17.1875 0Z" fill="white"/>
</svg>
