<svg width="36" height="36" viewBox="0 0 36 36" fill="none" xmlns="http://www.w3.org/2000/svg">
<path d="M17.8947 12.5451C16.5291 12.5451 15.2193 13.1055 14.2537 14.1029C13.288 15.1004 12.7455 16.4532 12.7455 17.8639C12.7455 19.2745 13.288 20.6273 14.2537 21.6248C15.2193 22.6223 16.5291 23.1826 17.8947 23.1826C19.2604 23.1826 20.5702 22.6223 21.5358 21.6248C22.5015 20.6273 23.044 19.2745 23.044 17.8639C23.044 16.4532 22.5015 15.1004 21.5358 14.1029C20.5702 13.1055 19.2604 12.5451 17.8947 12.5451ZM17.8947 8.99926C20.1709 8.99926 22.3538 9.9332 23.9632 11.5956C25.5727 13.2581 26.4769 15.5128 26.4769 17.8639C26.4769 20.2149 25.5727 22.4697 23.9632 24.1321C22.3538 25.7945 20.1709 26.7285 17.8947 26.7285C15.6186 26.7285 13.4357 25.7945 11.8263 24.1321C10.2168 22.4697 9.31261 20.2149 9.31261 17.8639C9.31261 15.5128 10.2168 13.2581 11.8263 11.5956C13.4357 9.9332 15.6186 8.99926 17.8947 8.99926ZM29.0515 8.55603C29.0515 9.14379 28.8255 9.70747 28.4231 10.1231C28.0207 10.5387 27.475 10.7722 26.906 10.7722C26.337 10.7722 25.7912 10.5387 25.3889 10.1231C24.9865 9.70747 24.7605 9.14379 24.7605 8.55603C24.7605 7.96827 24.9865 7.40458 25.3889 6.98897C25.7912 6.57336 26.337 6.33987 26.906 6.33987C27.475 6.33987 28.0207 6.57336 28.4231 6.98897C28.8255 7.40458 29.0515 7.96827 29.0515 8.55603ZM17.8947 3.68049C13.6483 3.68049 12.9549 3.6929 10.9793 3.78332C9.63358 3.84892 8.73074 4.03507 7.89312 4.37193C7.19216 4.63776 6.55845 5.06383 6.03938 5.61829C5.50215 6.15442 5.08908 6.80896 4.83101 7.53305C4.50489 8.40178 4.32467 9.33257 4.26288 10.7208C4.17362 12.6781 4.16332 13.3624 4.16332 17.8639C4.16332 22.2501 4.17534 22.9663 4.26288 25.007C4.32638 26.3952 4.50661 27.3295 4.83101 28.1929C5.12281 28.9641 5.46609 29.5191 6.03595 30.1077C6.61438 30.7034 7.15162 31.0597 7.88969 31.354C8.7376 31.6927 9.64044 31.8806 10.9793 31.9444C12.8742 32.0366 13.5367 32.0473 17.8947 32.0473C22.1412 32.0473 22.8346 32.0348 24.8102 31.9444C26.1525 31.8788 27.057 31.6927 27.8946 31.3576C28.5946 31.0904 29.2279 30.6652 29.7484 30.113C30.3268 29.5155 30.6718 28.9606 30.9568 28.1982C31.2829 27.3242 31.4648 26.3899 31.5266 25.007C31.6159 23.0497 31.6262 22.3653 31.6262 17.8639C31.6262 13.4777 31.6141 12.7614 31.5266 10.7208C31.4631 9.33434 31.2829 8.39824 30.9568 7.53305C30.6981 6.8097 30.2858 6.15542 29.7501 5.61829C29.2313 5.0631 28.5975 4.63639 27.8964 4.37016C27.0553 4.0333 26.1525 3.84714 24.8102 3.78332C22.9153 3.69113 22.2528 3.68049 17.8947 3.68049ZM17.8947 0.134644C22.5583 0.134644 23.1401 0.152373 24.9699 0.241019C26.7979 0.329665 28.0423 0.625743 29.1373 1.06543C30.2702 1.51575 31.2245 2.12564 32.1789 3.10961C33.0516 3.99588 33.727 5.06796 34.1579 6.25123C34.5819 7.38058 34.8702 8.66772 34.956 10.5559C35.0367 12.4458 35.059 13.0468 35.059 17.8639C35.059 22.6809 35.0419 23.2819 34.956 25.1719C34.8702 27.06 34.5819 28.3454 34.1579 29.4765C33.7282 30.6604 33.0527 31.7328 32.1789 32.6181C31.3206 33.5193 30.2827 34.2169 29.1373 34.6623C28.044 35.1002 26.7979 35.3981 24.9699 35.4867C23.1401 35.5701 22.5583 35.5931 17.8947 35.5931C13.2312 35.5931 12.6493 35.5754 10.8196 35.4867C8.99163 35.3981 7.74722 35.1002 6.65214 34.6623C5.50613 34.2182 4.46804 33.5205 3.61063 32.6181C2.73767 31.732 2.0623 30.6599 1.63159 29.4765C1.20592 28.3472 0.919276 27.06 0.833454 25.1719C0.752782 23.2819 0.730469 22.6809 0.730469 17.8639C0.730469 13.0468 0.747633 12.4458 0.833454 10.5559C0.919276 8.66595 1.20592 7.38235 1.63159 6.25123C2.06111 5.06723 2.73664 3.99487 3.61063 3.10961C4.46828 2.2076 5.50631 1.50995 6.65214 1.06543C7.74722 0.625743 8.98992 0.329665 10.8196 0.241019C12.6493 0.157691 13.2312 0.134644 17.8947 0.134644Z" fill="white"/>
</svg>
