<svg width="36" height="35" viewBox="0 0 36 35" fill="none" xmlns="http://www.w3.org/2000/svg">
<path d="M17.9375 12.0312C16.57 12.0312 15.2585 12.5745 14.2915 13.5415C13.3245 14.5085 12.7812 15.82 12.7812 17.1875C12.7812 18.555 13.3245 19.8665 14.2915 20.8335C15.2585 21.8005 16.57 22.3437 17.9375 22.3438C19.305 22.3438 20.6165 21.8005 21.5835 20.8335C22.5505 19.8665 23.0938 18.555 23.0938 17.1875C23.0938 15.82 22.5505 14.5085 21.5835 13.5415C20.6165 12.5745 19.305 12.0312 17.9375 12.0312ZM17.9375 8.59375C20.2167 8.59375 22.4026 9.49916 24.0142 11.1108C25.6258 12.7224 26.5313 14.9083 26.5312 17.1875C26.5313 19.4667 25.6258 21.6526 24.0142 23.2642C22.4026 24.8758 20.2167 25.7813 17.9375 25.7812C15.6583 25.7813 13.4724 24.8758 11.8608 23.2642C10.2492 21.6526 9.34375 19.4667 9.34375 17.1875C9.34375 14.9083 10.2492 12.7224 11.8608 11.1108C13.4724 9.49916 15.6583 8.59375 17.9375 8.59375ZM29.1094 8.16406C29.1094 8.73386 28.883 9.28033 28.4801 9.68324C28.0772 10.0861 27.5307 10.3125 26.9609 10.3125C26.3911 10.3125 25.8447 10.0861 25.4418 9.68324C25.0389 9.28033 24.8125 8.73386 24.8125 8.16406C24.8125 7.59426 25.0389 7.0478 25.4418 6.64489C25.8447 6.24198 26.3911 6.01562 26.9609 6.01562C27.5307 6.01562 28.0772 6.24198 28.4801 6.64489C28.883 7.0478 29.1094 7.59426 29.1094 8.16406ZM17.9375 3.4375C13.6853 3.4375 12.9909 3.44953 11.0127 3.53719C9.66516 3.60078 8.76109 3.78125 7.92234 4.10781C7.22043 4.36552 6.58587 4.77857 6.06609 5.31609C5.52814 5.83584 5.11451 6.47038 4.85609 7.17234C4.52953 8.01453 4.34906 8.91688 4.28719 10.2627C4.19781 12.1602 4.1875 12.8236 4.1875 17.1875C4.1875 21.4397 4.19953 22.1341 4.28719 24.1123C4.35078 25.4581 4.53125 26.3639 4.85609 27.2009C5.14828 27.9486 5.49203 28.4866 6.06266 29.0572C6.64188 29.6347 7.17984 29.9802 7.91891 30.2655C8.76797 30.5937 9.67203 30.7759 11.0127 30.8378C12.9102 30.9272 13.5736 30.9375 17.9375 30.9375C22.1897 30.9375 22.8841 30.9255 24.8623 30.8378C26.2064 30.7742 27.1122 30.5938 27.9509 30.2689C28.6518 30.0099 29.286 29.5977 29.8072 29.0623C30.3864 28.4831 30.7319 27.9452 31.0172 27.2061C31.3438 26.3588 31.5259 25.453 31.5878 24.1123C31.6772 22.2148 31.6875 21.5514 31.6875 17.1875C31.6875 12.9353 31.6755 12.2409 31.5878 10.2627C31.5242 8.91859 31.3438 8.01109 31.0172 7.17234C30.7582 6.4711 30.3453 5.83681 29.8089 5.31609C29.2894 4.77786 28.6548 4.36419 27.9527 4.10609C27.1105 3.77953 26.2064 3.59906 24.8623 3.53719C22.9648 3.44781 22.3014 3.4375 17.9375 3.4375ZM17.9375 0C22.6073 0 23.19 0.0171874 25.0222 0.103125C26.8527 0.189062 28.0987 0.476094 29.1953 0.902344C30.3297 1.33891 31.2853 1.93016 32.2409 2.88406C33.1149 3.74326 33.7912 4.78257 34.2227 5.92969C34.6472 7.02453 34.9359 8.27234 35.0219 10.1028C35.1027 11.935 35.125 12.5177 35.125 17.1875C35.125 21.8573 35.1078 22.44 35.0219 24.2722C34.9359 26.1027 34.6472 27.3487 34.2227 28.4453C33.7924 29.5931 33.116 30.6326 32.2409 31.4909C31.3815 32.3646 30.3422 33.0408 29.1953 33.4727C28.1005 33.8972 26.8527 34.1859 25.0222 34.2719C23.19 34.3527 22.6073 34.375 17.9375 34.375C13.2677 34.375 12.685 34.3578 10.8528 34.2719C9.02234 34.1859 7.77625 33.8972 6.67969 33.4727C5.53212 33.0421 4.49262 32.3657 3.63406 31.4909C2.75992 30.6319 2.08363 29.5925 1.65234 28.4453C1.22609 27.3505 0.939062 26.1027 0.853125 24.2722C0.772344 22.44 0.75 21.8573 0.75 17.1875C0.75 12.5177 0.767187 11.935 0.853125 10.1028C0.939062 8.27062 1.22609 7.02625 1.65234 5.92969C2.08244 4.78187 2.75888 3.74227 3.63406 2.88406C4.49287 2.00962 5.5323 1.33328 6.67969 0.902344C7.77625 0.476094 9.02062 0.189062 10.8528 0.103125C12.685 0.0223437 13.2677 0 17.9375 0Z" fill="black"/>
</svg>
