<svg width="46" height="35" viewBox="0 0 46 35" fill="none" xmlns="http://www.w3.org/2000/svg">
<path d="M44.0048 0H1.69712C1.34647 0 1.01018 0.139294 0.762238 0.387238C0.514294 0.635183 0.375 0.971469 0.375 1.32212V31.2901C0.375 32.1082 0.700019 32.8929 1.27856 33.4714C1.85709 34.05 3.26676 34.375 4.08494 34.375H42.867C43.6852 34.375 43.8448 34.05 44.4234 33.4714C45.0019 32.8929 45.3269 32.1082 45.3269 31.2901V1.32212C45.3269 0.971469 45.1876 0.635183 44.9397 0.387238C44.6917 0.139294 44.3555 0 44.0048 0ZM40.607 2.64423L22.851 18.9195L5.09495 2.64423H40.607ZM42.242 31.7308H3.45994C3.34305 31.7308 3.23096 31.6843 3.14831 31.6017C3.06566 31.519 3.01923 31.4069 3.01923 31.2901V4.32772L21.9696 21.6871C22.2133 21.9101 22.5316 22.0337 22.862 22.0337C23.1923 22.0337 23.5107 21.9101 23.7544 21.6871L42.6827 4.32772V31.2901C42.6827 31.4069 42.6363 31.519 42.5536 31.6017C42.471 31.6843 42.3589 31.7308 42.242 31.7308Z" fill="#3F48CC"/>
</svg>
