<svg width="46" height="36" viewBox="0 0 46 36" fill="none" xmlns="http://www.w3.org/2000/svg">
<path d="M44.0048 0.75H1.69712C1.34647 0.75 1.01018 0.889294 0.762238 1.13724C0.514294 1.38518 0.375 1.72147 0.375 2.07212V32.0401C0.375 32.8582 0.700019 33.6429 1.27856 34.2214C1.85709 34.8 3.26676 35.125 4.08494 35.125H42.867C43.6852 35.125 43.8448 34.8 44.4234 34.2214C45.0019 33.6429 45.3269 32.8582 45.3269 32.0401V2.07212C45.3269 1.72147 45.1876 1.38518 44.9397 1.13724C44.6917 0.889294 44.3555 0.75 44.0048 0.75ZM40.607 3.39423L22.851 19.6695L5.09495 3.39423H40.607ZM42.242 32.4808H3.45994C3.34305 32.4808 3.23096 32.4343 3.14831 32.3517C3.06566 32.269 3.01923 32.1569 3.01923 32.0401V5.07772L21.9696 22.4371C22.2133 22.6601 22.5316 22.7837 22.862 22.7837C23.1923 22.7837 23.5107 22.6601 23.7544 22.4371L42.6827 5.07772V32.0401C42.6827 32.1569 42.6363 32.269 42.5536 32.3517C42.471 32.4343 42.3589 32.4808 42.242 32.4808Z" fill="#3F48CC"/>
</svg>
