<svg width="45" height="35" viewBox="0 0 45 35" fill="none" xmlns="http://www.w3.org/2000/svg">
<path d="M43.6298 0H1.32212C0.971469 0 0.635183 0.139294 0.387239 0.387238C0.139294 0.635183 0 0.971469 0 1.32212V31.2901C0 32.1082 0.325019 32.8929 0.903557 33.4714C1.48209 34.05 2.26676 34.375 3.08494 34.375H41.867C42.6852 34.375 43.4698 34.05 44.0484 33.4714C44.6269 32.8929 44.9519 32.1082 44.9519 31.2901V1.32212C44.9519 0.971469 44.8126 0.635183 44.5647 0.387238C44.3167 0.139294 43.9805 0 43.6298 0ZM40.232 2.64423L22.476 18.9195L4.71995 2.64423H40.232ZM41.867 31.7308H3.08494C2.96805 31.7308 2.85596 31.6843 2.77331 31.6017C2.69066 31.519 2.64423 31.4069 2.64423 31.2901V4.32772L21.5946 21.6871C21.8383 21.9101 22.1566 22.0337 22.487 22.0337C22.8173 22.0337 23.1357 21.9101 23.3794 21.6871L42.3077 4.32772V31.2901C42.3077 31.4069 42.2613 31.519 42.1786 31.6017C42.096 31.6843 41.9839 31.7308 41.867 31.7308Z" fill="#3F48CC"/>
</svg>
