<svg width="46" height="36" viewBox="0 0 46 36" fill="none" xmlns="http://www.w3.org/2000/svg">
<path d="M44.0048 0.0223389H1.69705C1.34641 0.0223389 1.01012 0.164294 0.762177 0.416977C0.514233 0.669659 0.374939 1.01237 0.374939 1.36972V31.9103C0.374939 32.7441 0.699958 33.5438 1.2785 34.1334C1.85703 34.723 3.2667 35.0542 4.08488 35.0542H42.8669C43.6851 35.0542 43.8448 34.723 44.4233 34.1334C45.0018 33.5438 45.3269 32.7441 45.3269 31.9103V1.36972C45.3269 1.01237 45.1876 0.669659 44.9396 0.416977C44.6917 0.164294 44.3554 0.0223389 44.0048 0.0223389ZM40.6069 2.7171L22.8509 19.3033L5.09489 2.7171H40.6069ZM42.2419 32.3594H3.45988C3.34299 32.3594 3.2309 32.3121 3.14825 32.2279C3.0656 32.1437 3.01917 32.0294 3.01917 31.9103V4.43276L21.9695 22.1238C22.2132 22.3511 22.5316 22.4771 22.8619 22.4771C23.1923 22.4771 23.5106 22.3511 23.7544 22.1238L42.6826 4.43276V31.9103C42.6826 32.0294 42.6362 32.1437 42.5536 32.2279C42.4709 32.3121 42.3588 32.3594 42.2419 32.3594Z" fill="#3F48CC"/>
</svg>
