<svg width="36" height="37" viewBox="0 0 36 37" fill="none" xmlns="http://www.w3.org/2000/svg">
<path d="M7.88432 16.3027C10.6306 21.8775 15.0552 26.428 20.4524 29.2844L24.6481 24.9506C25.163 24.4187 25.9259 24.2414 26.5934 24.4778C28.7294 25.2067 31.037 25.6007 33.4019 25.6007C34.4508 25.6007 35.309 26.4871 35.309 27.5706V34.4456C35.309 35.529 34.4508 36.4155 33.4019 36.4155C15.4938 36.4155 0.980469 21.4244 0.980469 2.92695C0.980469 1.84349 1.83868 0.957031 2.88761 0.957031H9.56261C10.6115 0.957031 11.4697 1.84349 11.4697 2.92695C11.4697 5.38934 11.8512 7.75324 12.5568 9.95954C12.7666 10.649 12.614 11.4173 12.08 11.9689L7.88432 16.3027Z" fill="#3F48CC"/>
</svg>
