<svg width="46" height="36" viewBox="0 0 46 36" fill="none" xmlns="http://www.w3.org/2000/svg">
<path d="M44.0547 0.111725H1.80422C1.45404 0.111725 1.11821 0.255409 0.870602 0.511169C0.622992 0.766928 0.483887 1.11381 0.483887 1.47551V32.388C0.483887 33.232 0.808467 34.0414 1.38622 34.6381C1.96398 35.2349 3.37174 35.5702 4.18881 35.5702H42.9185C43.7355 35.5702 43.895 35.2349 44.4727 34.6381C45.0505 34.0414 45.3751 33.232 45.3751 32.388V1.47551C45.3751 1.11381 45.236 0.766928 44.9884 0.511169C44.7407 0.255409 44.4049 0.111725 44.0547 0.111725ZM40.6615 2.8393L22.9295 19.6275L5.19746 2.8393H40.6615ZM42.2943 32.8426H3.56465C3.44793 32.8426 3.33599 32.7947 3.25345 32.7095C3.17091 32.6242 3.12454 32.5086 3.12454 32.388V4.57585L22.0493 22.4824C22.2927 22.7124 22.6106 22.8399 22.9405 22.8399C23.2704 22.8399 23.5883 22.7124 23.8317 22.4824L42.7344 4.57585V32.388C42.7344 32.5086 42.688 32.6242 42.6055 32.7095C42.523 32.7947 42.411 32.8426 42.2943 32.8426Z" fill="#3F48CC"/>
</svg>
