<svg width="36" height="36" viewBox="0 0 36 36" fill="none" xmlns="http://www.w3.org/2000/svg">
<path d="M7.78819 15.68C10.5382 21.1878 14.9688 25.6836 20.3733 28.5056L24.5747 24.2239C25.0903 23.6985 25.8542 23.5233 26.5226 23.7568C28.6615 24.4769 30.9722 24.8662 33.3403 24.8662C34.3906 24.8662 35.25 25.742 35.25 26.8124V33.6047C35.25 34.6751 34.3906 35.5509 33.3403 35.5509C15.408 35.5509 0.875 20.7402 0.875 2.46526C0.875 1.39484 1.73437 0.519043 2.78472 0.519043H9.46875C10.5191 0.519043 11.3785 1.39484 11.3785 2.46526C11.3785 4.89802 11.7604 7.23348 12.467 9.41324C12.6771 10.0944 12.5243 10.8534 11.9896 11.3984L7.78819 15.68Z" fill="#3F48CC"/>
</svg>
