<svg width="36" height="35" viewBox="0 0 36 35" fill="none" xmlns="http://www.w3.org/2000/svg">
<path d="M18.0625 12.0312C16.695 12.0312 15.3835 12.5745 14.4165 13.5415C13.4495 14.5085 12.9062 15.82 12.9062 17.1875C12.9062 18.555 13.4495 19.8665 14.4165 20.8335C15.3835 21.8005 16.695 22.3437 18.0625 22.3438C19.43 22.3438 20.7415 21.8005 21.7085 20.8335C22.6755 19.8665 23.2188 18.555 23.2188 17.1875C23.2188 15.82 22.6755 14.5085 21.7085 13.5415C20.7415 12.5745 19.43 12.0312 18.0625 12.0312ZM18.0625 8.59375C20.3417 8.59375 22.5276 9.49916 24.1392 11.1108C25.7508 12.7224 26.6563 14.9083 26.6562 17.1875C26.6563 19.4667 25.7508 21.6526 24.1392 23.2642C22.5276 24.8758 20.3417 25.7813 18.0625 25.7812C15.7833 25.7813 13.5974 24.8758 11.9858 23.2642C10.3742 21.6526 9.46875 19.4667 9.46875 17.1875C9.46875 14.9083 10.3742 12.7224 11.9858 11.1108C13.5974 9.49916 15.7833 8.59375 18.0625 8.59375ZM29.2344 8.16406C29.2344 8.73386 29.008 9.28033 28.6051 9.68324C28.2022 10.0861 27.6557 10.3125 27.0859 10.3125C26.5161 10.3125 25.9697 10.0861 25.5668 9.68324C25.1639 9.28033 24.9375 8.73386 24.9375 8.16406C24.9375 7.59426 25.1639 7.0478 25.5668 6.64489C25.9697 6.24198 26.5161 6.01562 27.0859 6.01562C27.6557 6.01562 28.2022 6.24198 28.6051 6.64489C29.008 7.0478 29.2344 7.59426 29.2344 8.16406ZM18.0625 3.4375C13.8103 3.4375 13.1159 3.44953 11.1377 3.53719C9.79016 3.60078 8.88609 3.78125 8.04734 4.10781C7.34543 4.36552 6.71087 4.77857 6.19109 5.31609C5.65314 5.83584 5.23951 6.47038 4.98109 7.17234C4.65453 8.01453 4.47406 8.91688 4.41219 10.2627C4.32281 12.1602 4.3125 12.8236 4.3125 17.1875C4.3125 21.4397 4.32453 22.1341 4.41219 24.1123C4.47578 25.4581 4.65625 26.3639 4.98109 27.2009C5.27328 27.9486 5.61703 28.4866 6.18766 29.0572C6.76688 29.6347 7.30484 29.9802 8.04391 30.2655C8.89297 30.5937 9.79703 30.7759 11.1377 30.8378C13.0352 30.9272 13.6986 30.9375 18.0625 30.9375C22.3147 30.9375 23.0091 30.9255 24.9873 30.8378C26.3314 30.7742 27.2372 30.5938 28.0759 30.2689C28.7768 30.0099 29.411 29.5977 29.9322 29.0623C30.5114 28.4831 30.8569 27.9452 31.1422 27.2061C31.4688 26.3588 31.6509 25.453 31.7128 24.1123C31.8022 22.2148 31.8125 21.5514 31.8125 17.1875C31.8125 12.9353 31.8005 12.2409 31.7128 10.2627C31.6492 8.91859 31.4688 8.01109 31.1422 7.17234C30.8832 6.4711 30.4703 5.83681 29.9339 5.31609C29.4144 4.77786 28.7798 4.36419 28.0777 4.10609C27.2355 3.77953 26.3314 3.59906 24.9873 3.53719C23.0898 3.44781 22.4264 3.4375 18.0625 3.4375ZM18.0625 0C22.7323 0 23.315 0.0171874 25.1472 0.103125C26.9777 0.189062 28.2237 0.476094 29.3203 0.902344C30.4547 1.33891 31.4103 1.93016 32.3659 2.88406C33.2399 3.74326 33.9162 4.78257 34.3477 5.92969C34.7722 7.02453 35.0609 8.27234 35.1469 10.1028C35.2277 11.935 35.25 12.5177 35.25 17.1875C35.25 21.8573 35.2328 22.44 35.1469 24.2722C35.0609 26.1027 34.7722 27.3487 34.3477 28.4453C33.9174 29.5931 33.241 30.6326 32.3659 31.4909C31.5065 32.3646 30.4672 33.0408 29.3203 33.4727C28.2255 33.8972 26.9777 34.1859 25.1472 34.2719C23.315 34.3527 22.7323 34.375 18.0625 34.375C13.3927 34.375 12.81 34.3578 10.9778 34.2719C9.14734 34.1859 7.90125 33.8972 6.80469 33.4727C5.65712 33.0421 4.61762 32.3657 3.75906 31.4909C2.88492 30.6319 2.20863 29.5925 1.77734 28.4453C1.35109 27.3505 1.06406 26.1027 0.978125 24.2722C0.897344 22.44 0.875 21.8573 0.875 17.1875C0.875 12.5177 0.892187 11.935 0.978125 10.1028C1.06406 8.27062 1.35109 7.02625 1.77734 5.92969C2.20744 4.78187 2.88388 3.74227 3.75906 2.88406C4.61787 2.00962 5.6573 1.33328 6.80469 0.902344C7.90125 0.476094 9.14562 0.189062 10.9778 0.103125C12.81 0.0223437 13.3927 0 18.0625 0Z" fill="white"/>
</svg>
