<svg width="36" height="35" viewBox="0 0 36 35" fill="none" xmlns="http://www.w3.org/2000/svg">
<path d="M7.78819 15.3767C10.5382 20.7813 14.9688 25.1927 20.3733 27.9618L24.5747 23.7604C25.0903 23.2448 25.8542 23.0729 26.5226 23.3021C28.6615 24.0087 30.9722 24.3906 33.3403 24.3906C34.3906 24.3906 35.25 25.25 35.25 26.3004V32.9653C35.25 34.0156 34.3906 34.875 33.3403 34.875C15.408 34.875 0.875 20.342 0.875 2.40972C0.875 1.35938 1.73437 0.5 2.78472 0.5H9.46875C10.5191 0.5 11.3785 1.35938 11.3785 2.40972C11.3785 4.79688 11.7604 7.08854 12.467 9.22743C12.6771 9.89583 12.5243 10.6406 11.9896 11.1753L7.78819 15.3767Z" fill="#3F48CC"/>
</svg>
