<svg width="31" height="32" viewBox="0 0 31 32" fill="none" xmlns="http://www.w3.org/2000/svg">
<path d="M9.6875 31.2292C8.85677 31.2292 8.14587 30.9285 7.55479 30.3273C6.96271 29.725 6.66667 29.0013 6.66667 28.1563C6.66667 27.3112 6.96271 26.5875 7.55479 25.9852C8.14587 25.384 8.85677 25.0833 9.6875 25.0833C10.5182 25.0833 11.2291 25.384 11.8202 25.9852C12.4123 26.5875 12.7083 27.3112 12.7083 28.1563C12.7083 29.0013 12.4123 29.725 11.8202 30.3273C11.2291 30.9285 10.5182 31.2292 9.6875 31.2292ZM24.7917 31.2292C23.9609 31.2292 23.25 30.9285 22.659 30.3273C22.0669 29.725 21.7708 29.0013 21.7708 28.1563C21.7708 27.3112 22.0669 26.5875 22.659 25.9852C23.25 25.384 23.9609 25.0833 24.7917 25.0833C25.6224 25.0833 26.3338 25.384 26.9259 25.9852C27.517 26.5875 27.8125 27.3112 27.8125 28.1563C27.8125 29.0013 27.517 29.725 26.9259 30.3273C26.3338 30.9285 25.6224 31.2292 24.7917 31.2292ZM8.40365 6.64583L12.0286 14.3281H22.6016L26.7552 6.64583H8.40365ZM6.96875 3.57292H29.2474C29.8264 3.57292 30.2669 3.83514 30.569 4.35958C30.8711 4.88505 30.8837 5.41667 30.6068 5.95443L25.2448 15.7878C24.9679 16.2999 24.5963 16.6968 24.1301 16.9785C23.6649 17.2602 23.1554 17.401 22.6016 17.401H11.349L9.6875 20.474H27.8125V23.5469H9.6875C8.55469 23.5469 7.69879 23.0409 7.11979 22.0289C6.5408 21.0179 6.51563 20.013 7.04427 19.0143L9.08333 15.25L3.64583 3.57292H0.625V0.5H5.53385L6.96875 3.57292Z" fill="black"/>
</svg>
